<svg viewBox="0 0 163 73" fill="none" xmlns="http://www.w3.org/2000/svg">
    <path d="M62.5587 20.442L65.8922 31.7038H69.221L72.5545 20.442V31.7038H75.3616V17.0706H70.8474L67.5945 28.413L64.3417 17.0706H59.7468V31.7038H62.5587V20.442Z" fill="#2B6638"/>
    <path d="M82.8349 32.0025C86.0451 32.0025 88.2927 29.8165 88.2927 26.4451C88.2927 23.0737 86.0641 20.8877 82.8349 20.8877C79.6057 20.8877 77.3723 23.0737 77.3723 26.4451C77.3723 29.8165 79.582 32.0025 82.8349 32.0025ZM82.8349 23.2965C84.3191 23.2965 85.3623 24.4204 85.3623 26.4261C85.3623 28.4319 84.3001 29.5984 82.8159 29.5984C81.3317 29.5984 80.2838 28.4509 80.2838 26.4451C80.2838 24.4393 81.346 23.2965 82.8539 23.2965H82.8349Z" fill="#2B6638"/>
    <path d="M93.651 32.0026C94.3097 32.0205 94.9609 31.8582 95.5342 31.5331C96.1075 31.208 96.5811 30.7325 96.9038 30.158V31.7038H99.692V21.1865H96.9038V26.5874C96.9038 28.413 96.2021 29.5558 94.6562 29.5558C93.4328 29.5558 92.7879 28.7354 92.7879 27.0474V21.1865H89.9998V27.9293C89.9998 30.561 91.3844 32.0026 93.651 32.0026Z" fill="#2B6638"/>
    <path d="M104.894 26.3835C104.894 24.5389 105.633 23.3345 107.222 23.3345C108.564 23.3345 109.119 24.1596 109.119 25.8429V31.7038H111.912V24.9609C111.912 22.3292 110.546 20.8877 108.237 20.8877C107.563 20.8721 106.898 21.0404 106.313 21.3747C105.729 21.7089 105.246 22.1963 104.917 22.7844V21.1864H102.125V31.7038H104.917L104.894 26.3835Z" fill="#2B6638"/>
    <path d="M114.89 28.873C114.89 31.0637 116.07 31.7181 117.796 31.7181H119.726V29.3993H118.882C117.957 29.3993 117.678 29.1812 117.678 28.138V23.4958H119.726V21.1865H117.678V18.0948H114.89V21.1865H113.301V23.4958H114.89V28.873Z" fill="#2B6638"/>
    <path d="M126.569 25.2596L124.7 25.5442C122.054 25.9425 121.068 27.09 121.068 28.8634C121.068 30.708 122.557 32.012 124.643 32.012C125.303 32.0484 125.96 31.9102 126.548 31.6112C127.137 31.3123 127.636 30.8634 127.996 30.3097C127.999 30.7894 128.059 31.267 128.176 31.7322H130.765C130.537 30.8019 130.442 29.8441 130.481 28.8871V25.0226C130.481 22.2913 128.916 20.8877 126.066 20.8877C123.055 20.8877 121.533 22.59 121.41 24.6195H124.24C124.252 24.3833 124.31 24.1518 124.412 23.9385C124.514 23.7252 124.658 23.5344 124.834 23.3772C125.011 23.22 125.217 23.0996 125.441 23.0231C125.665 22.9465 125.901 22.9154 126.137 22.9314C127.085 22.9314 127.702 23.4957 127.702 24.2781C127.692 24.7997 127.37 25.1316 126.569 25.2596ZM127.773 26.6822V27.6306C127.751 28.2467 127.492 28.8306 127.051 29.2607C126.609 29.6909 126.019 29.9341 125.402 29.9398C124.539 29.9398 123.98 29.4941 123.98 28.6738C123.98 27.8534 124.719 27.3887 125.843 27.1896L126.507 27.0663C126.947 26.9989 127.374 26.8645 127.773 26.668V26.6822Z" fill="#2B6638"/>
    <path d="M135.559 21.1865H132.771V31.7038H135.559V21.1865Z" fill="#2B6638"/>
    <path d="M135.597 17.0706H132.709V19.6406H135.597V17.0706Z" fill="#2B6638"/>
    <path d="M140.761 26.3834C140.761 24.5389 141.501 23.3344 143.089 23.3344C144.431 23.3344 144.986 24.1595 144.986 25.8429V31.7037H147.774V24.9609C147.774 22.3292 146.408 20.8877 144.099 20.8877C143.426 20.8725 142.761 21.0411 142.176 21.3753C141.591 21.7094 141.109 22.1966 140.78 22.7844V21.1864H137.992V31.7037H140.785L140.761 26.3834Z" fill="#2B6638"/>
    <path d="M70.7478 47.3849H62.6393V43.8096H70.0461V41.2206H62.6393V37.9724H70.5487V35.3597H59.7468V49.9929H70.7478V47.3849Z" fill="#2B6638"/>
    <path d="M80.042 48.4472V54.0093H82.8349V39.4757H80.042V41.0215C79.6992 40.4377 79.2048 39.9575 78.6113 39.6319C78.0177 39.3063 77.3471 39.1475 76.6705 39.1722C74.0009 39.1722 71.9287 41.4435 71.9287 44.8149C71.9287 47.9445 73.7164 50.2917 76.6089 50.2917C77.2945 50.3236 77.9758 50.1689 78.5804 49.844C79.185 49.5192 79.6901 49.0364 80.042 48.4472ZM74.8639 44.7723C74.8639 42.7665 76.0494 41.581 77.5335 41.581C79.0177 41.581 80.0846 42.7475 80.0846 44.7343C80.0846 46.7211 78.9608 47.8829 77.4719 47.8829C75.9071 47.8924 74.8639 46.6405 74.8639 44.7723V44.7723Z" fill="#2B6638"/>
    <path d="M92.0481 48.4472V49.993H94.841V39.4756H92.0529V44.8766C92.0529 46.7022 91.3463 47.845 89.8005 47.845C88.5771 47.845 87.937 47.0199 87.937 45.3365V39.4756H85.144V46.2185C85.144 48.8502 86.5334 50.2917 88.8 50.2917C89.4579 50.3083 90.1078 50.1453 90.6801 49.8204C91.2524 49.4954 91.7253 49.0207 92.0481 48.4472V48.4472Z" fill="#2B6638"/>
    <path d="M100.071 35.3597H97.1836V37.9297H100.071V35.3597Z" fill="#2B6638"/>
    <path d="M100.033 39.4756H97.2451V49.993H100.033V39.4756Z" fill="#2B6638"/>
    <path d="M108.644 50.2917C111.357 50.2917 113.32 48.1673 113.32 44.7342C113.32 41.3012 111.376 39.1721 108.687 39.1721C107.999 39.1413 107.315 39.2969 106.707 39.6224C106.099 39.9478 105.591 40.4312 105.235 41.0214V39.4756H102.428V54.0092H105.221V48.4471C105.572 49.0349 106.076 49.5167 106.678 49.8414C107.281 50.1662 107.96 50.3218 108.644 50.2917ZM105.192 44.7342C105.192 42.7474 106.316 41.5809 107.824 41.5809C109.332 41.5809 110.413 42.6858 110.413 44.7153C110.413 46.7448 109.289 47.8828 107.8 47.8828C106.312 47.8828 105.192 46.74 105.192 44.7342V44.7342Z" fill="#2B6638"/>
    <path d="M131.306 49.993V43.1505C131.306 40.5236 130.039 39.1959 127.872 39.1959C127.143 39.1668 126.419 39.3457 125.787 39.7117C125.155 40.0777 124.64 40.6158 124.302 41.2633C123.828 39.8787 122.756 39.1959 121.149 39.1959C120.487 39.1804 119.835 39.3497 119.264 39.6847C118.694 40.0198 118.228 40.5074 117.919 41.0926V39.5088H115.126V50.0262H117.919V44.6727C117.919 42.8281 118.56 41.6237 120.086 41.6237C121.433 41.6237 121.831 42.5246 121.831 44.2127V49.993H124.601V44.6727C124.601 42.8281 125.246 41.6237 126.768 41.6237C128.114 41.6237 128.517 42.5246 128.517 44.2127V49.993H131.306Z" fill="#2B6638"/>
    <path d="M143.568 44.7343C143.568 41.3439 141.444 39.1721 138.352 39.1721C135.26 39.1721 133.013 41.2538 133.013 44.7343C133.013 48.1057 135.18 50.2917 138.433 50.2917C140.922 50.2917 142.729 48.9877 143.331 46.8017H140.486C140.285 47.1964 139.973 47.523 139.587 47.7407C139.202 47.9583 138.76 48.0573 138.319 48.0251C136.896 48.0251 135.991 47.1811 135.787 45.5546H143.516C143.549 45.3744 143.568 45.0472 143.568 44.7343ZM135.863 43.5299C136.166 42.2259 136.967 41.3818 138.433 41.3818C139.898 41.3818 140.581 42.3302 140.742 43.5299H135.863Z" fill="#2B6638"/>
    <path d="M152.383 49.993H155.171V43.2501C155.171 40.6184 153.806 39.1721 151.501 39.1721C150.828 39.1575 150.163 39.3263 149.579 39.6605C148.994 39.9946 148.511 40.4814 148.182 41.0689V39.4614H145.394V49.9787H148.182V44.6726C148.182 42.8281 148.926 41.6237 150.51 41.6237C151.852 41.6237 152.407 42.444 152.407 44.1321L152.383 49.993Z" fill="#2B6638"/>
    <path d="M163 41.7849V39.4756H160.952V36.384H158.163V39.4756H156.58V41.7849H158.163V47.1621C158.163 49.3481 159.349 50.0072 161.075 50.0072H163V47.6979H162.175C161.255 47.6979 160.971 47.4798 160.971 46.4366V41.7991L163 41.7849Z" fill="#2B6638"/>
    <path d="M66.1721 65.8543C63.7443 65.8543 61.9993 63.9576 61.9993 60.956C61.9993 57.9545 63.7443 56.0767 66.1721 56.0767C67.9993 56.0767 69.1831 56.9397 69.7237 58.6657H72.6968C72.1752 55.318 69.7474 53.3502 66.1721 53.3502C61.9044 53.3502 58.9456 56.4181 58.9456 60.9371C58.9456 65.456 61.8997 68.5619 66.1721 68.5619C69.847 68.5619 72.2748 66.4755 72.7348 63.1468H69.7664C69.2827 64.868 68.121 65.8543 66.1721 65.8543Z" fill="#2B6638"/>
    <path d="M79.5013 57.4661C76.31 57.4661 74.0435 59.6521 74.0435 63.0235C74.0435 66.395 76.2484 68.5809 79.5013 68.5809C82.7542 68.5809 84.9591 66.395 84.9591 63.0235C84.9591 59.6521 82.7305 57.4661 79.5013 57.4661ZM79.5013 66.1768C78.0171 66.1768 76.9502 65.0293 76.9502 63.0235C76.9502 61.0177 78.0171 59.8702 79.5203 59.8702C81.0234 59.8702 82.0477 60.994 82.0477 63.0046C82.0477 65.0151 80.9855 66.1768 79.5013 66.1768Z" fill="#2B6638"/>
    <path d="M99.5118 57.4661C98.7823 57.436 98.0593 57.614 97.4271 57.9792C96.7949 58.3444 96.2796 58.8818 95.9412 59.5288C95.467 58.1442 94.3954 57.4661 92.7879 57.4661C92.1263 57.4495 91.4732 57.6183 90.9026 57.9535C90.3319 58.2887 89.8664 58.7769 89.5587 59.3628V57.7791H86.78V68.2822H89.573V62.9619C89.573 61.1173 90.2131 59.9129 91.74 59.9129C93.0819 59.9129 93.485 60.8138 93.485 62.5019V68.2822H96.2637V62.9619C96.2637 61.1173 96.9086 59.9129 98.4307 59.9129C99.7774 59.9129 100.176 60.8138 100.176 62.5019V68.2822H102.969V61.416C102.945 58.7986 101.679 57.4661 99.5118 57.4661Z" fill="#2B6638"/>
    <path d="M111.494 57.4661C110.806 57.4354 110.123 57.5904 109.515 57.915C108.908 58.2396 108.399 58.7217 108.042 59.3107V57.7648H105.273V72.2985H108.061V66.7364C108.412 67.3227 108.914 67.8036 109.515 68.1282C110.116 68.4529 110.793 68.6093 111.475 68.5809C114.183 68.5809 116.151 66.4566 116.151 63.0235C116.151 59.5904 114.183 57.4661 111.494 57.4661ZM110.612 66.1768C109.128 66.1768 108.004 65.0293 108.004 63.0235C108.004 61.0177 109.128 59.8702 110.631 59.8702C112.135 59.8702 113.22 60.975 113.22 63.0045C113.22 65.034 112.097 66.1768 110.612 66.1768Z" fill="#2B6638"/>
    <path d="M126.891 61.5962C126.891 58.8697 125.326 57.4661 122.476 57.4661C119.465 57.4661 117.938 59.1684 117.82 61.1979H120.627C120.638 60.9618 120.697 60.7303 120.799 60.517C120.901 60.3037 121.044 60.1128 121.221 59.9556C121.398 59.7985 121.604 59.6781 121.827 59.6015C122.051 59.525 122.288 59.4938 122.524 59.5098C123.472 59.5098 124.089 60.0741 124.089 60.8565C124.089 61.3781 123.771 61.7195 122.965 61.8381L121.101 62.1179C118.451 62.5209 117.469 63.6637 117.469 65.4371C117.469 67.2817 118.953 68.5857 121.04 68.5857C121.699 68.6226 122.356 68.4846 122.945 68.1856C123.534 67.8867 124.033 67.4374 124.392 66.8834C124.395 67.3631 124.456 67.8407 124.572 68.3059H127.161C126.938 67.3749 126.844 66.4175 126.882 65.4608L126.891 61.5962ZM124.179 64.209C124.161 64.8262 123.904 65.4124 123.461 65.8427C123.018 66.2731 122.425 66.5138 121.808 66.5135C120.945 66.5135 120.385 66.0725 120.385 65.2522C120.385 64.4319 121.13 63.9672 122.253 63.768L122.913 63.6447C123.365 63.5811 123.806 63.4467 124.217 63.2464L124.179 64.209Z" fill="#2B6638"/>
    <path d="M135.298 57.4661C134.625 57.451 133.96 57.6196 133.375 57.9538C132.791 58.2879 132.308 58.7751 131.979 59.3629V57.7554H129.186V68.2822H131.979V62.9619C131.979 61.1173 132.719 59.9129 134.307 59.9129C135.649 59.9129 136.204 60.7333 136.204 62.4213V68.2822H138.992V61.5394C138.973 58.9077 137.608 57.4661 135.298 57.4661Z" fill="#2B6638"/>
    <path d="M145.337 65.0909L142.909 57.7648H139.979L143.909 68.5239L143.753 68.946C143.468 69.6857 143.07 69.9892 142.387 69.9892H140.761V72.2984H142.767C144.535 72.2984 145.474 71.6725 146.058 70.1267L150.714 57.7648H147.765L145.337 65.0909Z" fill="#2B6638"/>
    <path d="M29.2618 17.0705L0 68.2822H51.2116V0L36.1469 26.3645L29.2618 17.0705Z" fill="#2B6638"/>
</svg>
